<mxfile host="app.diagrams.net" agent="Mozilla/5.0 (Windows NT 10.0; Win64; x64) AppleWebKit/537.36 (KHTML, like Gecko) Chrome/138.0.0.0 Safari/537.36" version="27.1.6">
  <diagram id="qsCmz5cgCutj90vAJ9o6" name="Страница — 1">
    <mxGraphModel dx="2377" dy="1252" grid="1" gridSize="10" guides="1" tooltips="1" connect="1" arrows="1" fold="1" page="1" pageScale="1" pageWidth="827" pageHeight="1169" math="0" shadow="0">
      <root>
        <mxCell id="0" />
        <mxCell id="1" parent="0" />
        <mxCell id="6g14PVRx89wxjFyA8-9d-1" value="&lt;p&gt;Входные каналы&lt;/p&gt;&lt;p&gt;&lt;br&gt;&lt;/p&gt;&lt;p&gt;&lt;br&gt;&lt;/p&gt;&lt;p&gt;&lt;br&gt;&lt;/p&gt;" style="rounded=0;whiteSpace=wrap;html=1;" vertex="1" parent="1">
          <mxGeometry x="280" y="40" width="320" height="120" as="geometry" />
        </mxCell>
        <mxCell id="6g14PVRx89wxjFyA8-9d-2" value="Telegram&lt;div&gt;Fronted&lt;/div&gt;" style="html=1;dropTarget=0;whiteSpace=wrap;" vertex="1" parent="1">
          <mxGeometry x="300" y="90" width="130" height="60" as="geometry" />
        </mxCell>
        <mxCell id="6g14PVRx89wxjFyA8-9d-3" value="" style="shape=module;jettyWidth=8;jettyHeight=4;" vertex="1" parent="6g14PVRx89wxjFyA8-9d-2">
          <mxGeometry x="1" width="20" height="20" relative="1" as="geometry">
            <mxPoint x="-27" y="7" as="offset" />
          </mxGeometry>
        </mxCell>
        <mxCell id="6g14PVRx89wxjFyA8-9d-6" value="Mobile App" style="html=1;dropTarget=0;whiteSpace=wrap;" vertex="1" parent="1">
          <mxGeometry x="450" y="90" width="130" height="60" as="geometry" />
        </mxCell>
        <mxCell id="6g14PVRx89wxjFyA8-9d-7" value="" style="shape=module;jettyWidth=8;jettyHeight=4;" vertex="1" parent="6g14PVRx89wxjFyA8-9d-6">
          <mxGeometry x="1" width="20" height="20" relative="1" as="geometry">
            <mxPoint x="-27" y="7" as="offset" />
          </mxGeometry>
        </mxCell>
        <mxCell id="6g14PVRx89wxjFyA8-9d-8" value="&lt;p&gt;Webhook Server&lt;/p&gt;&lt;p&gt;&lt;br&gt;&lt;/p&gt;&lt;p&gt;&lt;br&gt;&lt;/p&gt;&lt;p&gt;&lt;br&gt;&lt;/p&gt;&lt;p&gt;&lt;br&gt;&lt;/p&gt;&lt;p&gt;&lt;br&gt;&lt;/p&gt;&lt;p&gt;&lt;br&gt;&lt;/p&gt;" style="rounded=0;whiteSpace=wrap;html=1;" vertex="1" parent="1">
          <mxGeometry x="320" y="200" width="240" height="200" as="geometry" />
        </mxCell>
        <mxCell id="6g14PVRx89wxjFyA8-9d-9" value="Telegram&lt;div&gt;Bot API&lt;/div&gt;" style="html=1;dropTarget=0;whiteSpace=wrap;" vertex="1" parent="1">
          <mxGeometry x="360" y="240" width="130" height="60" as="geometry" />
        </mxCell>
        <mxCell id="6g14PVRx89wxjFyA8-9d-10" value="" style="shape=module;jettyWidth=8;jettyHeight=4;" vertex="1" parent="6g14PVRx89wxjFyA8-9d-9">
          <mxGeometry x="1" width="20" height="20" relative="1" as="geometry">
            <mxPoint x="-27" y="7" as="offset" />
          </mxGeometry>
        </mxCell>
        <mxCell id="6g14PVRx89wxjFyA8-9d-11" value="Nginx /&amp;nbsp;&lt;div&gt;Reverse Proxy&lt;/div&gt;" style="html=1;dropTarget=0;whiteSpace=wrap;" vertex="1" parent="1">
          <mxGeometry x="360" y="330" width="130" height="60" as="geometry" />
        </mxCell>
        <mxCell id="6g14PVRx89wxjFyA8-9d-12" value="" style="shape=module;jettyWidth=8;jettyHeight=4;" vertex="1" parent="6g14PVRx89wxjFyA8-9d-11">
          <mxGeometry x="1" width="20" height="20" relative="1" as="geometry">
            <mxPoint x="-27" y="7" as="offset" />
          </mxGeometry>
        </mxCell>
        <mxCell id="6g14PVRx89wxjFyA8-9d-13" value="&lt;p&gt;Webhook Server&lt;/p&gt;&lt;p&gt;&lt;br&gt;&lt;/p&gt;&lt;p&gt;&lt;br&gt;&lt;/p&gt;&lt;p&gt;&lt;br&gt;&lt;/p&gt;&lt;p&gt;&lt;br&gt;&lt;/p&gt;&lt;p&gt;&lt;br&gt;&lt;/p&gt;&lt;p&gt;&lt;br&gt;&lt;/p&gt;&lt;p&gt;&lt;br&gt;&lt;/p&gt;&lt;p&gt;&lt;br&gt;&lt;/p&gt;&lt;p&gt;&lt;br&gt;&lt;/p&gt;" style="rounded=0;whiteSpace=wrap;html=1;" vertex="1" parent="1">
          <mxGeometry x="240" y="440" width="440" height="280" as="geometry" />
        </mxCell>
        <mxCell id="6g14PVRx89wxjFyA8-9d-14" value="Command&lt;div&gt;Processor&lt;/div&gt;" style="html=1;dropTarget=0;whiteSpace=wrap;" vertex="1" parent="1">
          <mxGeometry x="400" y="490" width="120" height="60" as="geometry" />
        </mxCell>
        <mxCell id="6g14PVRx89wxjFyA8-9d-15" value="" style="shape=module;jettyWidth=8;jettyHeight=4;" vertex="1" parent="6g14PVRx89wxjFyA8-9d-14">
          <mxGeometry x="1" width="20" height="20" relative="1" as="geometry">
            <mxPoint x="-27" y="7" as="offset" />
          </mxGeometry>
        </mxCell>
        <mxCell id="6g14PVRx89wxjFyA8-9d-16" value="Favorites&lt;div&gt;Service&lt;/div&gt;" style="html=1;dropTarget=0;whiteSpace=wrap;" vertex="1" parent="1">
          <mxGeometry x="260" y="620" width="120" height="60" as="geometry" />
        </mxCell>
        <mxCell id="6g14PVRx89wxjFyA8-9d-17" value="" style="shape=module;jettyWidth=8;jettyHeight=4;" vertex="1" parent="6g14PVRx89wxjFyA8-9d-16">
          <mxGeometry x="1" width="20" height="20" relative="1" as="geometry">
            <mxPoint x="-27" y="7" as="offset" />
          </mxGeometry>
        </mxCell>
        <mxCell id="6g14PVRx89wxjFyA8-9d-20" value="Notification&lt;div&gt;Service&lt;/div&gt;" style="html=1;dropTarget=0;whiteSpace=wrap;" vertex="1" parent="1">
          <mxGeometry x="400" y="620" width="120" height="60" as="geometry" />
        </mxCell>
        <mxCell id="6g14PVRx89wxjFyA8-9d-21" value="" style="shape=module;jettyWidth=8;jettyHeight=4;" vertex="1" parent="6g14PVRx89wxjFyA8-9d-20">
          <mxGeometry x="1" width="20" height="20" relative="1" as="geometry">
            <mxPoint x="-27" y="7" as="offset" />
          </mxGeometry>
        </mxCell>
        <mxCell id="6g14PVRx89wxjFyA8-9d-22" value="Search&lt;div&gt;Service&lt;/div&gt;" style="html=1;dropTarget=0;whiteSpace=wrap;" vertex="1" parent="1">
          <mxGeometry x="540" y="620" width="120" height="60" as="geometry" />
        </mxCell>
        <mxCell id="6g14PVRx89wxjFyA8-9d-23" value="" style="shape=module;jettyWidth=8;jettyHeight=4;" vertex="1" parent="6g14PVRx89wxjFyA8-9d-22">
          <mxGeometry x="1" width="20" height="20" relative="1" as="geometry">
            <mxPoint x="-27" y="7" as="offset" />
          </mxGeometry>
        </mxCell>
        <mxCell id="6g14PVRx89wxjFyA8-9d-24" value="&lt;p&gt;Data Service&lt;/p&gt;&lt;p&gt;&lt;br&gt;&lt;/p&gt;&lt;p&gt;&lt;br&gt;&lt;/p&gt;&lt;p&gt;&lt;br&gt;&lt;/p&gt;&lt;p&gt;&lt;br&gt;&lt;/p&gt;&lt;p&gt;&lt;br&gt;&lt;/p&gt;" style="rounded=0;whiteSpace=wrap;html=1;" vertex="1" parent="1">
          <mxGeometry x="80" y="760" width="320" height="160" as="geometry" />
        </mxCell>
        <mxCell id="6g14PVRx89wxjFyA8-9d-25" value="Favorites&lt;div&gt;Service&lt;/div&gt;" style="html=1;dropTarget=0;whiteSpace=wrap;" vertex="1" parent="1">
          <mxGeometry x="100" y="840" width="120" height="60" as="geometry" />
        </mxCell>
        <mxCell id="6g14PVRx89wxjFyA8-9d-26" value="" style="shape=module;jettyWidth=8;jettyHeight=4;" vertex="1" parent="6g14PVRx89wxjFyA8-9d-25">
          <mxGeometry x="1" width="20" height="20" relative="1" as="geometry">
            <mxPoint x="-27" y="7" as="offset" />
          </mxGeometry>
        </mxCell>
        <mxCell id="6g14PVRx89wxjFyA8-9d-27" value="Favorites&lt;div&gt;Service&lt;/div&gt;" style="html=1;dropTarget=0;whiteSpace=wrap;" vertex="1" parent="1">
          <mxGeometry x="260" y="840" width="120" height="60" as="geometry" />
        </mxCell>
        <mxCell id="6g14PVRx89wxjFyA8-9d-28" value="" style="shape=module;jettyWidth=8;jettyHeight=4;" vertex="1" parent="6g14PVRx89wxjFyA8-9d-27">
          <mxGeometry x="1" width="20" height="20" relative="1" as="geometry">
            <mxPoint x="-27" y="7" as="offset" />
          </mxGeometry>
        </mxCell>
        <mxCell id="6g14PVRx89wxjFyA8-9d-29" value="&lt;p&gt;External APIs&lt;/p&gt;&lt;p&gt;&lt;br&gt;&lt;/p&gt;&lt;p&gt;&lt;br&gt;&lt;/p&gt;&lt;p&gt;&lt;br&gt;&lt;/p&gt;&lt;p&gt;&lt;br&gt;&lt;/p&gt;&lt;p&gt;&lt;br&gt;&lt;/p&gt;" style="rounded=0;whiteSpace=wrap;html=1;" vertex="1" parent="1">
          <mxGeometry x="440" y="760" width="450" height="160" as="geometry" />
        </mxCell>
        <mxCell id="6g14PVRx89wxjFyA8-9d-30" value="Aviaseles API" style="html=1;dropTarget=0;whiteSpace=wrap;" vertex="1" parent="1">
          <mxGeometry x="460" y="840" width="130" height="60" as="geometry" />
        </mxCell>
        <mxCell id="6g14PVRx89wxjFyA8-9d-31" value="" style="shape=module;jettyWidth=8;jettyHeight=4;" vertex="1" parent="6g14PVRx89wxjFyA8-9d-30">
          <mxGeometry x="1" width="20" height="20" relative="1" as="geometry">
            <mxPoint x="-27" y="7" as="offset" />
          </mxGeometry>
        </mxCell>
        <mxCell id="6g14PVRx89wxjFyA8-9d-32" value="Booking.com&lt;div&gt;API&lt;/div&gt;" style="html=1;dropTarget=0;whiteSpace=wrap;" vertex="1" parent="1">
          <mxGeometry x="600" y="840" width="130" height="60" as="geometry" />
        </mxCell>
        <mxCell id="6g14PVRx89wxjFyA8-9d-33" value="" style="shape=module;jettyWidth=8;jettyHeight=4;" vertex="1" parent="6g14PVRx89wxjFyA8-9d-32">
          <mxGeometry x="1" width="20" height="20" relative="1" as="geometry">
            <mxPoint x="-27" y="7" as="offset" />
          </mxGeometry>
        </mxCell>
        <mxCell id="6g14PVRx89wxjFyA8-9d-34" value="Skyscanner&lt;div&gt;API&lt;/div&gt;" style="html=1;dropTarget=0;whiteSpace=wrap;" vertex="1" parent="1">
          <mxGeometry x="740" y="840" width="130" height="60" as="geometry" />
        </mxCell>
        <mxCell id="6g14PVRx89wxjFyA8-9d-35" value="" style="shape=module;jettyWidth=8;jettyHeight=4;" vertex="1" parent="6g14PVRx89wxjFyA8-9d-34">
          <mxGeometry x="1" width="20" height="20" relative="1" as="geometry">
            <mxPoint x="-27" y="7" as="offset" />
          </mxGeometry>
        </mxCell>
        <mxCell id="6g14PVRx89wxjFyA8-9d-38" value="" style="endArrow=classic;html=1;rounded=0;exitX=0.25;exitY=1;exitDx=0;exitDy=0;entryX=0;entryY=0.5;entryDx=0;entryDy=0;" edge="1" parent="1" source="6g14PVRx89wxjFyA8-9d-2" target="6g14PVRx89wxjFyA8-9d-9">
          <mxGeometry width="50" height="50" relative="1" as="geometry">
            <mxPoint x="140" y="190" as="sourcePoint" />
            <mxPoint x="190" y="140" as="targetPoint" />
            <Array as="points">
              <mxPoint x="333" y="270" />
            </Array>
          </mxGeometry>
        </mxCell>
        <mxCell id="6g14PVRx89wxjFyA8-9d-39" value="" style="endArrow=classic;html=1;rounded=0;exitX=0.5;exitY=1;exitDx=0;exitDy=0;entryX=1;entryY=0.5;entryDx=0;entryDy=0;" edge="1" parent="1" source="6g14PVRx89wxjFyA8-9d-6" target="6g14PVRx89wxjFyA8-9d-11">
          <mxGeometry width="50" height="50" relative="1" as="geometry">
            <mxPoint x="690" y="200" as="sourcePoint" />
            <mxPoint x="740" y="150" as="targetPoint" />
            <Array as="points">
              <mxPoint x="515" y="360" />
            </Array>
          </mxGeometry>
        </mxCell>
        <mxCell id="6g14PVRx89wxjFyA8-9d-40" value="" style="endArrow=classic;html=1;rounded=0;exitX=0.5;exitY=1;exitDx=0;exitDy=0;entryX=0.5;entryY=0;entryDx=0;entryDy=0;" edge="1" parent="1" source="6g14PVRx89wxjFyA8-9d-9" target="6g14PVRx89wxjFyA8-9d-11">
          <mxGeometry width="50" height="50" relative="1" as="geometry">
            <mxPoint x="240" y="280" as="sourcePoint" />
            <mxPoint x="290" y="230" as="targetPoint" />
          </mxGeometry>
        </mxCell>
        <mxCell id="6g14PVRx89wxjFyA8-9d-41" value="" style="endArrow=classic;html=1;rounded=0;exitX=0;exitY=0.5;exitDx=0;exitDy=0;entryX=0;entryY=0.25;entryDx=0;entryDy=0;" edge="1" parent="1" source="6g14PVRx89wxjFyA8-9d-11" target="6g14PVRx89wxjFyA8-9d-14">
          <mxGeometry width="50" height="50" relative="1" as="geometry">
            <mxPoint x="180" y="370" as="sourcePoint" />
            <mxPoint x="230" y="320" as="targetPoint" />
            <Array as="points">
              <mxPoint x="340" y="360" />
              <mxPoint x="340" y="505" />
            </Array>
          </mxGeometry>
        </mxCell>
        <mxCell id="6g14PVRx89wxjFyA8-9d-42" value="- Flights&lt;div&gt;- Hotels&lt;/div&gt;&lt;div&gt;- Combiend&lt;/div&gt;" style="shape=note;whiteSpace=wrap;html=1;backgroundOutline=1;fontColor=#000000;darkOpacity=0.05;fillColor=#FFF9B2;strokeColor=none;fillStyle=solid;direction=west;gradientDirection=north;gradientColor=#FFF2A1;shadow=1;size=20;pointerEvents=1;" vertex="1" parent="1">
          <mxGeometry x="720" y="560" width="80" height="80" as="geometry" />
        </mxCell>
        <mxCell id="6g14PVRx89wxjFyA8-9d-43" value="" style="endArrow=none;dashed=1;html=1;rounded=0;exitX=1;exitY=0.5;exitDx=0;exitDy=0;entryX=0;entryY=0;entryDx=80;entryDy=50;entryPerimeter=0;" edge="1" parent="1" source="6g14PVRx89wxjFyA8-9d-22" target="6g14PVRx89wxjFyA8-9d-42">
          <mxGeometry width="50" height="50" relative="1" as="geometry">
            <mxPoint x="710" y="690" as="sourcePoint" />
            <mxPoint x="760" y="640" as="targetPoint" />
            <Array as="points">
              <mxPoint x="700" y="650" />
              <mxPoint x="700" y="590" />
            </Array>
          </mxGeometry>
        </mxCell>
        <mxCell id="6g14PVRx89wxjFyA8-9d-44" value="" style="endArrow=classic;html=1;rounded=0;exitX=0.5;exitY=1;exitDx=0;exitDy=0;entryX=0.5;entryY=0;entryDx=0;entryDy=0;" edge="1" parent="1" source="6g14PVRx89wxjFyA8-9d-22" target="6g14PVRx89wxjFyA8-9d-34">
          <mxGeometry width="50" height="50" relative="1" as="geometry">
            <mxPoint x="950" y="690" as="sourcePoint" />
            <mxPoint x="1000" y="640" as="targetPoint" />
            <Array as="points">
              <mxPoint x="600" y="740" />
              <mxPoint x="805" y="740" />
            </Array>
          </mxGeometry>
        </mxCell>
        <mxCell id="6g14PVRx89wxjFyA8-9d-45" value="" style="endArrow=classic;html=1;rounded=0;exitX=0.5;exitY=1;exitDx=0;exitDy=0;entryX=0.5;entryY=0;entryDx=0;entryDy=0;" edge="1" parent="1" source="6g14PVRx89wxjFyA8-9d-22" target="6g14PVRx89wxjFyA8-9d-32">
          <mxGeometry width="50" height="50" relative="1" as="geometry">
            <mxPoint x="890" y="700" as="sourcePoint" />
            <mxPoint x="940" y="650" as="targetPoint" />
            <Array as="points">
              <mxPoint x="600" y="800" />
              <mxPoint x="665" y="800" />
            </Array>
          </mxGeometry>
        </mxCell>
        <mxCell id="6g14PVRx89wxjFyA8-9d-46" value="" style="endArrow=classic;html=1;rounded=0;exitX=0.5;exitY=1;exitDx=0;exitDy=0;entryX=0.5;entryY=0;entryDx=0;entryDy=0;" edge="1" parent="1" source="6g14PVRx89wxjFyA8-9d-22" target="6g14PVRx89wxjFyA8-9d-30">
          <mxGeometry width="50" height="50" relative="1" as="geometry">
            <mxPoint x="480" y="750" as="sourcePoint" />
            <mxPoint x="530" y="700" as="targetPoint" />
            <Array as="points">
              <mxPoint x="600" y="740" />
              <mxPoint x="525" y="740" />
            </Array>
          </mxGeometry>
        </mxCell>
        <mxCell id="6g14PVRx89wxjFyA8-9d-47" value="" style="endArrow=classic;html=1;rounded=0;exitX=0.5;exitY=1;exitDx=0;exitDy=0;entryX=0.5;entryY=0;entryDx=0;entryDy=0;" edge="1" parent="1" source="6g14PVRx89wxjFyA8-9d-14" target="6g14PVRx89wxjFyA8-9d-22">
          <mxGeometry width="50" height="50" relative="1" as="geometry">
            <mxPoint x="560" y="520" as="sourcePoint" />
            <mxPoint x="610" y="470" as="targetPoint" />
            <Array as="points">
              <mxPoint x="460" y="580" />
              <mxPoint x="600" y="580" />
            </Array>
          </mxGeometry>
        </mxCell>
        <mxCell id="6g14PVRx89wxjFyA8-9d-48" value="" style="endArrow=classic;html=1;rounded=0;exitX=0.5;exitY=1;exitDx=0;exitDy=0;entryX=0.5;entryY=0;entryDx=0;entryDy=0;" edge="1" parent="1" source="6g14PVRx89wxjFyA8-9d-14" target="6g14PVRx89wxjFyA8-9d-20">
          <mxGeometry width="50" height="50" relative="1" as="geometry">
            <mxPoint x="160" y="560" as="sourcePoint" />
            <mxPoint x="210" y="510" as="targetPoint" />
          </mxGeometry>
        </mxCell>
        <mxCell id="6g14PVRx89wxjFyA8-9d-49" value="" style="endArrow=classic;html=1;rounded=0;exitX=0.5;exitY=1;exitDx=0;exitDy=0;entryX=0.5;entryY=0;entryDx=0;entryDy=0;" edge="1" parent="1" source="6g14PVRx89wxjFyA8-9d-14" target="6g14PVRx89wxjFyA8-9d-16">
          <mxGeometry width="50" height="50" relative="1" as="geometry">
            <mxPoint x="180" y="560" as="sourcePoint" />
            <mxPoint x="230" y="510" as="targetPoint" />
            <Array as="points">
              <mxPoint x="460" y="580" />
              <mxPoint x="320" y="580" />
            </Array>
          </mxGeometry>
        </mxCell>
        <mxCell id="6g14PVRx89wxjFyA8-9d-50" value="" style="endArrow=classic;html=1;rounded=0;exitX=0;exitY=0.75;exitDx=0;exitDy=0;entryX=0.25;entryY=0;entryDx=0;entryDy=0;" edge="1" parent="1" source="6g14PVRx89wxjFyA8-9d-14" target="6g14PVRx89wxjFyA8-9d-25">
          <mxGeometry width="50" height="50" relative="1" as="geometry">
            <mxPoint x="120" y="540" as="sourcePoint" />
            <mxPoint x="170" y="490" as="targetPoint" />
            <Array as="points">
              <mxPoint x="130" y="535" />
            </Array>
          </mxGeometry>
        </mxCell>
        <mxCell id="6g14PVRx89wxjFyA8-9d-51" value="" style="endArrow=classic;html=1;rounded=0;exitX=0.25;exitY=1;exitDx=0;exitDy=0;entryX=0.25;entryY=0;entryDx=0;entryDy=0;" edge="1" parent="1" source="6g14PVRx89wxjFyA8-9d-16" target="6g14PVRx89wxjFyA8-9d-27">
          <mxGeometry width="50" height="50" relative="1" as="geometry">
            <mxPoint x="140" y="690" as="sourcePoint" />
            <mxPoint x="190" y="640" as="targetPoint" />
          </mxGeometry>
        </mxCell>
        <mxCell id="6g14PVRx89wxjFyA8-9d-52" value="" style="endArrow=classic;html=1;rounded=0;exitX=0.25;exitY=1;exitDx=0;exitDy=0;entryX=0.75;entryY=0;entryDx=0;entryDy=0;" edge="1" parent="1" source="6g14PVRx89wxjFyA8-9d-20" target="6g14PVRx89wxjFyA8-9d-27">
          <mxGeometry width="50" height="50" relative="1" as="geometry">
            <mxPoint x="160" y="710" as="sourcePoint" />
            <mxPoint x="210" y="660" as="targetPoint" />
            <Array as="points">
              <mxPoint x="430" y="730" />
              <mxPoint x="350" y="730" />
            </Array>
          </mxGeometry>
        </mxCell>
        <mxCell id="6g14PVRx89wxjFyA8-9d-53" value="" style="endArrow=classic;html=1;rounded=0;exitX=0.5;exitY=1;exitDx=0;exitDy=0;entryX=0.75;entryY=0;entryDx=0;entryDy=0;" edge="1" parent="1" source="6g14PVRx89wxjFyA8-9d-22" target="6g14PVRx89wxjFyA8-9d-25">
          <mxGeometry width="50" height="50" relative="1" as="geometry">
            <mxPoint x="450" y="760" as="sourcePoint" />
            <mxPoint x="500" y="710" as="targetPoint" />
            <Array as="points">
              <mxPoint x="600" y="740" />
              <mxPoint x="420" y="740" />
              <mxPoint x="420" y="800" />
              <mxPoint x="190" y="800" />
            </Array>
          </mxGeometry>
        </mxCell>
        <mxCell id="6g14PVRx89wxjFyA8-9d-54" value="- Profiles&lt;div&gt;- Favorites&lt;/div&gt;&lt;div&gt;- History&lt;/div&gt;" style="shape=note;whiteSpace=wrap;html=1;backgroundOutline=1;fontColor=#000000;darkOpacity=0.05;fillColor=#FFF9B2;strokeColor=none;fillStyle=solid;direction=west;gradientDirection=north;gradientColor=#FFF2A1;shadow=1;size=20;pointerEvents=1;" vertex="1" parent="1">
          <mxGeometry x="280" y="960" width="80" height="80" as="geometry" />
        </mxCell>
        <mxCell id="6g14PVRx89wxjFyA8-9d-55" value="" style="endArrow=none;dashed=1;html=1;rounded=0;entryX=0.5;entryY=1;entryDx=0;entryDy=0;exitX=0.5;exitY=1;exitDx=0;exitDy=0;exitPerimeter=0;" edge="1" parent="1" source="6g14PVRx89wxjFyA8-9d-54" target="6g14PVRx89wxjFyA8-9d-27">
          <mxGeometry width="50" height="50" relative="1" as="geometry">
            <mxPoint x="230" y="980" as="sourcePoint" />
            <mxPoint x="280" y="930" as="targetPoint" />
          </mxGeometry>
        </mxCell>
      </root>
    </mxGraphModel>
  </diagram>
</mxfile>
